# xmcd
#
# Track frame offsets: 
#        150
#        17587
#        37624
#        50919
#        68273
#        83283
#        94769
#        114638
#        130485
#        145092
#        159581
#        180588
#        201774
#
# Disc length: 2877 seconds
#
# Revision: 2
# Processed by: cddbd v1.5.2PL0 Copyright (c) Steve Scherf et al.
# Submitted via: ExactAudioCopyFreeDBPlugin 1.0
#
DISCID=9e0b3b0d
DTITLE=羅敏莊 - 追憶逝水年華
DYEAR=2011
DGENRE=Vocal
TTITLE0=天國之邊 (Featuring 朱柏謙@朱淩淩)
TTITLE1=聖誕夜
TTITLE2=月光光
TTITLE3=芬芳
TTITLE4=如果我會飛
TTITLE5=當你說愛我
TTITLE6=我和春天有個約會
TTITLE7=你為了愛情
TTITLE8=孤燕
TTITLE9=徘徊在纏綿時份
TTITLE10=假如真的再有約會
TTITLE11=我們都錯了 (Featuring 蘇珊)
TTITLE12=Dream of you
EXTD=
EXTT0=
EXTT1=
EXTT2=
EXTT3=
EXTT4=
EXTT5=
EXTT6=
EXTT7=
EXTT8=
EXTT9=
EXTT10=
EXTT11=
EXTT12=
PLAYORDER=
